<?xml version="1.0" encoding="UTF-8" standalone="no"?>
<svg
   xmlns:dc="http://purl.org/dc/elements/1.1/"
   xmlns:cc="http://creativecommons.org/ns#"
   xmlns:rdf="http://www.w3.org/1999/02/22-rdf-syntax-ns#"
   xmlns:svg="http://www.w3.org/2000/svg"
   xmlns="http://www.w3.org/2000/svg"
   version="1.1"
   id="svg2"
   viewBox="0 0 393.75001 175"
   height="140pt"
   width="315pt">
  <defs
     id="defs4" />
  <metadata
     id="metadata7">
    <rdf:RDF>
      <cc:Work
         rdf:about="">
        <dc:format>image/svg+xml</dc:format>
        <dc:type
           rdf:resource="http://purl.org/dc/dcmitype/StillImage" />
        <dc:title />
      </cc:Work>
    </rdf:RDF>
  </metadata>
  <g
     id="flowRoot4136"
     style="font-style:normal;font-variant:normal;font-weight:normal;font-stretch:normal;line-height:0.01%;font-family:'Fira Sans';-inkscape-font-specification:'Fira Sans';letter-spacing:0px;word-spacing:0px;fill:#000000;fill-opacity:1;stroke:none;stroke-width:1px;stroke-linecap:butt;stroke-linejoin:miter;stroke-opacity:1"
     transform="translate(-175.44588,-38.132203)"
     aria-label=" " />
  <g
     id="flowRoot4144"
     style="font-style:normal;font-variant:normal;font-weight:normal;font-stretch:normal;line-height:0.01%;font-family:Tahoma;-inkscape-font-specification:Tahoma;letter-spacing:0px;word-spacing:0px;fill:#000000;fill-opacity:1;stroke:none;stroke-width:1px;stroke-linecap:butt;stroke-linejoin:miter;stroke-opacity:1"
     transform="matrix(0.9,0,0,1,-13.59163,-378.84794)"
     aria-label="CDS 101
">
    <path
       id="path19"
       style="font-style:normal;font-variant:normal;font-weight:600;font-stretch:normal;font-size:115.95018768px;line-height:125%;font-family:Montserrat;-inkscape-font-specification:'Montserrat, Semi-Bold';text-align:start;writing-mode:lr-tb;text-anchor:start;fill:#1e6239;fill-opacity:1"
       d="m 58.467178,540.0899 c 13.334272,0 24.69739,-4.75396 32.234153,-13.56618 l -9.739816,-9.27601 c -5.91346,6.49321 -13.218322,9.62386 -21.682685,9.62386 -16.812777,0 -28.987547,-11.82691 -28.987547,-28.52374 0,-16.69683 12.17477,-28.52375 28.987547,-28.52375 8.464363,0 15.769225,3.13066 21.682685,9.50792 l 9.739816,-9.16007 c -7.536763,-8.81221 -18.899881,-13.56617 -32.118202,-13.56617 -24.929291,0 -43.481321,17.50848 -43.481321,41.74207 0,24.23359 18.55203,41.74207 43.36537,41.74207 z" />
    <path
       id="path21"
       style="font-style:normal;font-variant:normal;font-weight:600;font-stretch:normal;font-size:115.95018768px;line-height:125%;font-family:Montserrat;-inkscape-font-specification:'Montserrat, Semi-Bold';text-align:start;writing-mode:lr-tb;text-anchor:start;fill:#1e6239;fill-opacity:1"
       d="m 105.14437,538.93039 h 35.48076 c 26.32069,0 44.29297,-16.23302 44.29297,-40.58256 0,-24.34954 -17.97228,-40.58257 -44.29297,-40.58257 h -35.48076 z m 15.07353,-12.75452 v -55.65609 h 19.71153 c 18.08823,0 29.7992,11.01527 29.7992,27.82805 0,16.81278 -11.71097,27.82804 -29.7992,27.82804 z" />
    <path
       id="path23"
       style="font-style:normal;font-variant:normal;font-weight:600;font-stretch:normal;font-size:115.95018768px;line-height:125%;font-family:Montserrat;-inkscape-font-specification:'Montserrat, Semi-Bold';text-align:start;writing-mode:lr-tb;text-anchor:start;fill:#1e6239;fill-opacity:1"
       d="m 226.10035,540.0899 c 22.26244,0 32.8139,-11.13122 32.8139,-24.11764 0,-29.7992 -48.11933,-18.55203 -48.11933,-35.82861 0,-6.14536 5.10181,-11.01527 17.62443,-11.01527 7.07296,0 15.07353,2.0871 22.37839,6.37726 l 4.75396,-11.71097 c -7.07296,-4.638 -17.27658,-7.18891 -27.0164,-7.18891 -22.26243,0 -32.69795,11.13122 -32.69795,24.23359 0,30.14705 48.23528,18.66798 48.23528,36.17646 0,6.02941 -5.33371,10.55147 -17.97228,10.55147 -9.97172,0 -20.29128,-3.71041 -26.78449,-8.92817 l -5.21776,11.71097 c 6.72511,5.79751 19.36368,9.73982 32.00225,9.73982 z" />
    <path
       id="path25"
       style="font-style:normal;font-variant:normal;font-weight:600;font-stretch:normal;font-size:115.95018768px;line-height:125%;font-family:Montserrat;-inkscape-font-specification:'Montserrat, Semi-Bold';text-align:start;writing-mode:lr-tb;text-anchor:start"
       d="m 295.82085,457.76526 v 12.63857 h 17.16063 v 68.52656 H 328.055 v -81.16513 z" />
    <path
       id="path27"
       style="font-style:normal;font-variant:normal;font-weight:600;font-stretch:normal;font-size:115.95018768px;line-height:125%;font-family:Montserrat;-inkscape-font-specification:'Montserrat, Semi-Bold';text-align:start;writing-mode:lr-tb;text-anchor:start"
       d="m 378.01322,540.0899 c 19.36368,0 33.9734,-15.07353 33.9734,-41.74207 0,-26.66854 -14.60972,-41.74207 -33.9734,-41.74207 -19.24773,0 -33.85746,15.07353 -33.85746,41.74207 0,26.66854 14.60973,41.74207 33.85746,41.74207 z m 0,-13.10238 c -11.01527,0 -18.66798,-9.04411 -18.66798,-28.63969 0,-19.59558 7.65271,-28.6397 18.66798,-28.6397 11.13122,0 18.78393,9.04412 18.78393,28.6397 0,19.59558 -7.65271,28.63969 -18.78393,28.63969 z" />
    <path
       id="path29"
       style="font-style:normal;font-variant:normal;font-weight:600;font-stretch:normal;font-size:115.95018768px;line-height:125%;font-family:Montserrat;-inkscape-font-specification:'Montserrat, Semi-Bold';text-align:start;writing-mode:lr-tb;text-anchor:start"
       d="m 417.43267,457.76526 v 12.63857 h 17.16063 v 68.52656 h 15.07352 v -81.16513 z" />
  </g>
  <g
     id="text4162"
     style="font-style:normal;font-weight:normal;font-size:40px;line-height:0%;font-family:sans-serif;letter-spacing:0px;word-spacing:0px;fill:#000000;fill-opacity:1;stroke:none;stroke-width:1px;stroke-linecap:butt;stroke-linejoin:miter;stroke-opacity:1"
     aria-label="Section 001">
    <path
       id="path32"
       style="font-style:normal;font-variant:normal;font-weight:500;font-stretch:normal;font-size:35.00000381px;line-height:125%;font-family:Montserrat;-inkscape-font-specification:'Montserrat, Medium';text-align:start;writing-mode:lr-tb;text-anchor:start"
       d="m 15.135006,72.857011 c 6.475,0 9.485001,-3.22 9.485001,-6.965001 0,-8.995001 -14.8400019,-5.25 -14.8400019,-11.235001 0,-2.135 1.7849999,-3.885 5.9500009,-3.885 2.17,0 4.585,0.63 6.72,1.995 l 1.155001,-2.8 c -2.030001,-1.400001 -5.005001,-2.170001 -7.875001,-2.170001 -6.440001,0 -9.3800013,3.220001 -9.3800013,7.000001 0,9.100001 14.8400013,5.320001 14.8400013,11.305001 0,2.135001 -1.82,3.780001 -6.055,3.780001 -3.150001,0 -6.265001,-1.19 -8.0850012,-2.835 l -1.2950002,2.73 c 1.9600002,1.82 5.6350004,3.08 9.3800014,3.08 z" />
    <path
       id="path34"
       style="font-style:normal;font-variant:normal;font-weight:500;font-stretch:normal;font-size:35.00000381px;line-height:125%;font-family:Montserrat;-inkscape-font-specification:'Montserrat, Medium';text-align:start;writing-mode:lr-tb;text-anchor:start"
       d="m 46.00829,63.40701 c 0,-5.705001 -3.815001,-9.555001 -9.170001,-9.555001 -5.355001,0 -9.310001,3.955 -9.310001,9.450001 0,5.530001 3.99,9.485001 9.975001,9.485001 3.08,0 5.635,-1.05 7.315001,-3.01 l -1.855001,-2.17 c -1.365,1.505 -3.185,2.24 -5.355,2.24 -3.675001,0 -6.300001,-2.17 -6.720001,-5.425001 H 45.93829 c 0.035,-0.315 0.07,-0.735 0.07,-1.015 z m -9.170001,-6.720001 c 3.255,0 5.6,2.205001 5.95,5.320001 H 30.888288 c 0.35,-3.15 2.73,-5.320001 5.950001,-5.320001 z" />
    <path
       id="path36"
       style="font-style:normal;font-variant:normal;font-weight:500;font-stretch:normal;font-size:35.00000381px;line-height:125%;font-family:Montserrat;-inkscape-font-specification:'Montserrat, Medium';text-align:start;writing-mode:lr-tb;text-anchor:start"
       d="m 58.724775,72.787011 c 3.325,0 6.090001,-1.4 7.560001,-3.99 l -2.555,-1.61 c -1.19,1.82 -3.010001,2.66 -5.040001,2.66 -3.64,0 -6.370001,-2.52 -6.370001,-6.545001 0,-3.955 2.730001,-6.510001 6.370001,-6.510001 2.03,0 3.850001,0.84 5.040001,2.660001 l 2.555,-1.645001 c -1.47,-2.59 -4.235001,-3.955 -7.560001,-3.955 -5.705,0 -9.800001,3.92 -9.800001,9.450001 0,5.530001 4.095001,9.485001 9.800001,9.485001 z" />
    <path
       id="path38"
       style="font-style:normal;font-variant:normal;font-weight:500;font-stretch:normal;font-size:35.00000381px;line-height:125%;font-family:Montserrat;-inkscape-font-specification:'Montserrat, Medium';text-align:start;writing-mode:lr-tb;text-anchor:start"
       d="m 80.254154,69.077011 c -0.7,0.56 -1.645,0.875 -2.625,0.875 -1.855,0 -2.905001,-1.12 -2.905001,-3.115001 V 56.792009 h 5.320001 v -2.765 h -5.320001 v -4.06 h -3.36 v 4.06 h -3.15 v 2.765 h 3.15 V 66.97701 c 0,3.745001 2.135,5.810001 5.880001,5.810001 1.505,0 3.045,-0.42 4.06,-1.295 z" />
    <path
       id="path40"
       style="font-style:normal;font-variant:normal;font-weight:500;font-stretch:normal;font-size:35.00000381px;line-height:125%;font-family:Montserrat;-inkscape-font-specification:'Montserrat, Medium';text-align:start;writing-mode:lr-tb;text-anchor:start"
       d="m 87.046341,50.457009 c 1.33,0 2.275,-0.98 2.275,-2.240001 0,-1.19 -0.98,-2.135 -2.275,-2.135 -1.295,0 -2.275001,0.98 -2.275001,2.205 0,1.225001 0.980001,2.170001 2.275001,2.170001 z m -1.68,22.120002 h 3.36 V 54.027009 h -3.36 z" />
    <path
       id="path42"
       style="font-style:normal;font-variant:normal;font-weight:500;font-stretch:normal;font-size:35.00000381px;line-height:125%;font-family:Montserrat;-inkscape-font-specification:'Montserrat, Medium';text-align:start;writing-mode:lr-tb;text-anchor:start"
       d="m 103.08673,72.787011 c 5.565,0 9.625,-3.955 9.625,-9.485001 0,-5.530001 -4.06,-9.450001 -9.625,-9.450001 -5.564999,0 -9.659999,3.92 -9.659999,9.450001 0,5.530001 4.095,9.485001 9.659999,9.485001 z m 0,-2.94 c -3.569998,0 -6.264999,-2.59 -6.264999,-6.545001 0,-3.955 2.695001,-6.510001 6.264999,-6.510001 3.57,0 6.23,2.555001 6.23,6.510001 0,3.955001 -2.66,6.545001 -6.23,6.545001 z" />
    <path
       id="path44"
       style="font-style:normal;font-variant:normal;font-weight:500;font-stretch:normal;font-size:35.00000381px;line-height:125%;font-family:Montserrat;-inkscape-font-specification:'Montserrat, Medium';text-align:start;writing-mode:lr-tb;text-anchor:start"
       d="m 127.26353,53.852009 c -2.94,0 -5.32,1.085 -6.685,2.975 v -2.8 h -3.22 v 18.550002 h 3.36 V 63.02201 c 0,-4.025 2.31,-6.160001 5.88,-6.160001 3.185,0 5.005,1.785001 5.005,5.425001 v 10.290001 h 3.36 V 61.90201 c 0,-5.460001 -3.185,-8.050001 -7.7,-8.050001 z" />
    <path
       id="path46"
       style="font-style:normal;font-variant:normal;font-weight:500;font-stretch:normal;font-size:35.00000381px;line-height:125%;font-family:Montserrat;-inkscape-font-specification:'Montserrat, Medium';text-align:start;writing-mode:lr-tb;text-anchor:start"
       d="m 159.15455,72.857011 c 5.705,0 9.975,-4.55 9.975,-12.530001 0,-7.980001 -4.27,-12.530002 -9.975,-12.530002 -5.74,0 -10.01,4.550001 -10.01,12.530002 0,7.980001 4.27,12.530001 10.01,12.530001 z m 0,-3.115 c -3.85,0 -6.51,-3.150001 -6.51,-9.415001 0,-6.265001 2.66,-9.415001 6.51,-9.415001 3.815,0 6.475,3.15 6.475,9.415001 0,6.265 -2.66,9.415001 -6.475,9.415001 z" />
    <path
       id="path48"
       style="font-style:normal;font-variant:normal;font-weight:500;font-stretch:normal;font-size:35.00000381px;line-height:125%;font-family:Montserrat;-inkscape-font-specification:'Montserrat, Medium';text-align:start;writing-mode:lr-tb;text-anchor:start"
       d="m 182.53346,72.857011 c 5.705,0 9.975,-4.55 9.975,-12.530001 0,-7.980001 -4.27,-12.530002 -9.975,-12.530002 -5.74,0 -10.01,4.550001 -10.01,12.530002 0,7.980001 4.27,12.530001 10.01,12.530001 z m 0,-3.115 c -3.85,0 -6.51,-3.150001 -6.51,-9.415001 0,-6.265001 2.66,-9.415001 6.51,-9.415001 3.815,0 6.475,3.15 6.475,9.415001 0,6.265 -2.66,9.415001 -6.475,9.415001 z" />
    <path
       id="path50"
       style="font-style:normal;font-variant:normal;font-weight:500;font-stretch:normal;font-size:35.00000381px;line-height:125%;font-family:Montserrat;-inkscape-font-specification:'Montserrat, Medium';text-align:start;writing-mode:lr-tb;text-anchor:start"
       d="m 194.36564,48.077008 v 3.045001 h 5.53001 v 21.455002 h 3.465 V 48.077008 Z" />
  </g>
</svg>
