<?xml version="1.0" encoding="UTF-8" standalone="no"?>
<svg
   xmlns:dc="http://purl.org/dc/elements/1.1/"
   xmlns:cc="http://creativecommons.org/ns#"
   xmlns:rdf="http://www.w3.org/1999/02/22-rdf-syntax-ns#"
   xmlns:svg="http://www.w3.org/2000/svg"
   xmlns="http://www.w3.org/2000/svg"
   viewBox="0 0 220.11383 220.11391"
   height="2.4457099in"
   width="2.4457092in"
   xml:space="preserve"
   version="1.1"
   id="svg2"><metadata
   id="metadata8"><rdf:RDF><cc:Work
       rdf:about=""><dc:format>image/svg+xml</dc:format><dc:type
         rdf:resource="http://purl.org/dc/dcmitype/StillImage" /><dc:title /></cc:Work></rdf:RDF></metadata><defs
   id="defs6">







</defs><g
   id="text14"
   style="font-style:normal;font-weight:600;font-size:110px;font-family:Montserrat;writing-mode:lr-tb;fill:#006633;fill-opacity:1;fill-rule:nonzero;stroke:none;stroke-width:1.25"
   transform="scale(0.94868329,1.0540926)"
   aria-label="CDS"><path
     id="path16"
     style="stroke-width:1.25"
     d="m 41.485181,117.10522 c 12.65,0 23.43,-4.51 30.58,-12.87 l -9.24,-8.800001 c -5.61,6.160001 -12.54,9.130001 -20.57,9.130001 -15.95,0 -27.5,-11.220001 -27.5,-27.060001 0,-15.84 11.55,-27.06 27.5,-27.06 8.03,0 14.96,2.97 20.57,9.02 l 9.24,-8.69 c -7.15,-8.36 -17.93,-12.87 -30.47,-12.87 -23.65,0 -41.24999969,16.61 -41.24999969,39.6 0,22.990001 17.59999969,39.600001 41.13999969,39.600001 z" /><path
     id="path18"
     style="stroke-width:1.25"
     d="m 85.815174,116.00522 h 33.659996 c 24.97,0 42.02,-15.4 42.02,-38.500001 0,-23.1 -17.05,-38.5 -42.02,-38.5 H 85.815174 Z m 14.299996,-12.1 V 51.105219 h 18.7 c 17.16,0 28.27,10.45 28.27,26.4 0,15.95 -11.11,26.400001 -28.27,26.400001 z" /><path
     id="path20"
     style="stroke-width:1.25"
     d="m 200.54517,117.10522 c 21.12,0 31.13,-10.56 31.13,-22.880001 0,-28.27 -45.65,-17.6 -45.65,-33.99 0,-5.83 4.84,-10.45 16.72,-10.45 6.71,0 14.3,1.98 21.23,6.05 l 4.51,-11.11 c -6.71,-4.4 -16.39,-6.82 -25.63,-6.82 -21.12,0 -31.02,10.56 -31.02,22.99 0,28.6 45.76,17.71 45.76,34.32 0,5.720001 -5.06,10.010001 -17.05,10.010001 -9.46,0 -19.25,-3.52 -25.41,-8.470001 l -4.95,11.110001 c 6.38,5.5 18.37,9.24 30.36,9.24 z" /></g>

<g
   id="text22"
   style="font-style:normal;font-weight:500;font-size:35px;font-family:Montserrat;writing-mode:lr-tb;fill:#000000;fill-opacity:1;fill-rule:nonzero;stroke:none;stroke-width:1.25"
   aria-label="Section 001"><path
     id="path23"
     style="stroke-width:1.25"
     d="m 16.183367,32.455606 c 6.475,0 9.485,-3.22 9.485,-6.965 0,-8.995 -14.84,-5.25 -14.84,-11.235 0,-2.135 1.785,-3.885 5.95,-3.885 2.17,0 4.585,0.63 6.72,1.995 l 1.155,-2.8000002 c -2.03,-1.4 -5.005,-2.17 -7.875,-2.17 -6.44,0 -9.3800003,3.2200002 -9.3800003,7.0000002 0,9.1 14.8400003,5.32 14.8400003,11.305 0,2.135 -1.82,3.78 -6.055,3.78 -3.15,0 -6.2650003,-1.19 -8.0850003,-2.835 l -1.295,2.73 c 1.96,1.82 5.6350003,3.08 9.3800003,3.08 z" /><path
     id="path25"
     style="stroke-width:1.25"
     d="m 47.053367,23.005606 c 0,-5.705 -3.815,-9.555 -9.17,-9.555 -5.355,0 -9.31,3.955 -9.31,9.45 0,5.53 3.99,9.485 9.975,9.485 3.08,0 5.635,-1.05 7.315,-3.01 l -1.855,-2.17 c -1.365,1.505 -3.185,2.24 -5.355,2.24 -3.675,0 -6.3,-2.17 -6.72,-5.425 h 15.05 c 0.035,-0.315 0.07,-0.735 0.07,-1.015 z m -9.17,-6.72 c 3.255,0 5.6,2.205 5.95,5.32 h -11.9 c 0.35,-3.15 2.73,-5.32 5.95,-5.32 z" /><path
     id="path27"
     style="stroke-width:1.25"
     d="m 59.793361,32.385606 c 3.325,0 6.09,-1.4 7.56,-3.99 l -2.555,-1.61 c -1.19,1.82 -3.01,2.66 -5.04,2.66 -3.64,0 -6.37,-2.52 -6.37,-6.545 0,-3.955 2.73,-6.51 6.37,-6.51 2.03,0 3.85,0.84 5.04,2.66 l 2.555,-1.645 c -1.47,-2.59 -4.235,-3.955 -7.56,-3.955 -5.705,0 -9.8,3.92 -9.8,9.45 0,5.53 4.095,9.485 9.8,9.485 z" /><path
     id="path29"
     style="stroke-width:1.25"
     d="m 81.318365,28.675606 c -0.7,0.56 -1.645,0.875 -2.625,0.875 -1.855,0 -2.905,-1.12 -2.905,-3.115 v -10.045 h 5.32 v -2.765 h -5.32 V 9.5656058 h -3.36 v 4.0600002 h -3.15 v 2.765 h 3.15 v 10.185 c 0,3.745 2.135,5.81 5.88,5.81 1.505,0 3.045,-0.42 4.06,-1.295 z" /><path
     id="path31"
     style="stroke-width:1.25"
     d="m 88.108362,10.055606 c 1.33,0 2.275,-0.9800002 2.275,-2.2400002 0,-1.19 -0.98,-2.135 -2.275,-2.135 -1.295,0 -2.275,0.98 -2.275,2.205 0,1.225 0.98,2.1700002 2.275,2.1700002 z m -1.68,22.12 h 3.36 v -18.55 h -3.36 z" /><path
     id="path33"
     style="stroke-width:1.25"
     d="m 104.13836,32.385606 c 5.565,0 9.625,-3.955 9.625,-9.485 0,-5.53 -4.06,-9.45 -9.625,-9.45 -5.564998,0 -9.659998,3.92 -9.659998,9.45 0,5.53 4.095,9.485 9.659998,9.485 z m 0,-2.94 c -3.57,0 -6.264998,-2.59 -6.264998,-6.545 0,-3.955 2.694998,-6.51 6.264998,-6.51 3.57,0 6.23,2.555 6.23,6.51 0,3.955 -2.66,6.545 -6.23,6.545 z" /><path
     id="path35"
     style="stroke-width:1.25"
     d="m 128.32337,13.450606 c -2.94,0 -5.32,1.085 -6.685,2.975 v -2.8 h -3.22 v 18.55 h 3.36 v -9.555 c 0,-4.025 2.31,-6.16 5.88,-6.16 3.185,0 5.005,1.785 5.005,5.425 v 10.29 h 3.36 v -10.675 c 0,-5.46 -3.185,-8.05 -7.7,-8.05 z" /><path
     id="path37"
     style="stroke-width:1.25"
     d="m 160.19195,32.455606 c 5.705,0 9.975,-4.55 9.975,-12.53 0,-7.98 -4.27,-12.5300002 -9.975,-12.5300002 -5.74,0 -10.01,4.5500002 -10.01,12.5300002 0,7.98 4.27,12.53 10.01,12.53 z m 0,-3.115 c -3.85,0 -6.51,-3.15 -6.51,-9.415 0,-6.265 2.66,-9.415 6.51,-9.415 3.815,0 6.475,3.15 6.475,9.415 0,6.265 -2.66,9.415 -6.475,9.415 z" /><path
     id="path39"
     style="stroke-width:1.25"
     d="m 183.57086,32.455606 c 5.705,0 9.975,-4.55 9.975,-12.53 0,-7.98 -4.27,-12.5300002 -9.975,-12.5300002 -5.74,0 -10.01,4.5500002 -10.01,12.5300002 0,7.98 4.27,12.53 10.01,12.53 z m 0,-3.115 c -3.85,0 -6.51,-3.15 -6.51,-9.415 0,-6.265 2.66,-9.415 6.51,-9.415 3.815,0 6.475,3.15 6.475,9.415 0,6.265 -2.66,9.415 -6.475,9.415 z" /><path
     id="path41"
     style="stroke-width:1.25"
     d="m 195.40305,7.6756058 v 3.0450002 h 5.53 v 21.455 h 3.465 V 7.6756058 Z" /></g>

<g
   id="text18"
   style="font-style:normal;font-weight:600;font-size:110px;font-family:Montserrat;writing-mode:lr-tb;fill:#000000;fill-opacity:1;fill-rule:nonzero;stroke:none;stroke-width:1.25"
   transform="scale(0.94868329,1.0540926)"
   aria-label="101"><path
     id="path44"
     style="stroke-width:1.25"
     d="m 14.311105,125.32034 v 11.99 h 16.28 v 65.01 h 14.3 v -77 z" /><path
     id="path46"
     style="stroke-width:1.25"
     d="m 92.301106,203.42034 c 18.370004,0 32.230004,-14.3 32.230004,-39.6 0,-25.3 -13.86,-39.6 -32.230004,-39.6 -18.26,0 -32.12,14.3 -32.12,39.6 0,25.3 13.86,39.6 32.12,39.6 z m 0,-12.43 c -10.45,0 -17.71,-8.58 -17.71,-27.17 0,-18.59 7.26,-27.17 17.71,-27.17 10.560004,0 17.820004,8.58 17.820004,27.17 0,18.59 -7.26,27.17 -17.820004,27.17 z" /><path
     id="path48"
     style="stroke-width:1.25"
     d="m 129.69767,125.32034 v 11.99 h 16.28 v 65.01 h 14.3 v -77 z" /></g>

<g
   id="text22-3"
   style="font-style:normal;font-variant:normal;font-weight:bold;font-stretch:normal;font-size:40px;line-height:125%;font-family:'Playfair Display';-inkscape-font-specification:'Playfair Display, Bold';text-align:start;writing-mode:lr-tb;text-anchor:start;fill:#f37021;fill-opacity:1;fill-rule:nonzero;stroke:none;stroke-width:1.25"
   aria-label="SP"><path
     id="path51"
     style="font-style:normal;font-variant:normal;font-weight:bold;font-stretch:normal;font-size:50.00000381px;font-family:'Playfair Display';-inkscape-font-specification:'Playfair Display, Bold';font-variant-ligatures:normal;font-variant-caps:normal;font-variant-numeric:normal;font-feature-settings:normal;text-align:start;writing-mode:lr-tb;text-anchor:start"
     d="m 169.84421,132.74985 c -4.71775,0 -9.03226,2.29839 -9.03226,7.37903 0,4.47581 3.34677,6.73387 7.17742,9.19355 3.54839,2.29839 6.04839,4.19355 6.04839,7.5 0,3.0242 -2.21775,4.51613 -5,4.51613 -5.1613,0 -7.01613,-4.75806 -7.33871,-10.12097 h -0.92742 c 0,6.41129 -0.0403,8.99194 -0.16129,10.8871 h 0.92741 c 0.1613,-1.16935 0.36291,-1.77419 0.8871,-1.77419 0.32258,0 0.72581,0.16129 1.37097,0.56451 1.33064,0.72581 3.14516,1.49194 6.49194,1.49194 5.40322,0 10,-2.54032 10,-7.8629 0,-4.35484 -3.0242,-6.53226 -6.85484,-9.07259 -4.47581,-3.06451 -6.93549,-4.35483 -6.93549,-7.62096 0,-2.54033 1.85484,-4.11291 4.43549,-4.11291 4.27419,0 6.57258,4.39516 6.85484,8.58871 h 0.92742 c 0,-5.64516 0.0806,-7.58064 0.20161,-9.19355 h -0.92742 c -0.16129,1.16936 -0.3629,1.7742 -0.8871,1.7742 -0.3629,0 -0.7258,-0.20162 -1.37097,-0.56452 -1.29032,-0.76613 -2.74193,-1.57258 -5.88709,-1.57258 z" /><path
     id="path53"
     style="font-style:normal;font-variant:normal;font-weight:bold;font-stretch:normal;font-size:50.00000381px;font-family:'Playfair Display';-inkscape-font-specification:'Playfair Display, Bold';font-variant-ligatures:normal;font-variant-caps:normal;font-variant-numeric:normal;font-feature-settings:normal;text-align:start;writing-mode:lr-tb;text-anchor:start"
     d="m 194.8713,150.29017 c 9.47581,0 12.05645,-5.12096 12.05645,-9.03225 0,-4.67742 -3.66935,-7.94355 -11.16935,-7.94355 -1.04839,0 -3.70968,0.0806 -6.33065,0.0806 -2.25806,0 -4.75806,-0.0403 -6.12903,-0.12097 v 0.80646 c 2.54032,0.12096 3.02419,0.52419 3.02419,3.46774 v 20 c 0,2.94355 -0.48387,3.34677 -3.02419,3.46774 v 0.80645 c 1.73387,-0.0403 4.07258,-0.12096 6.37097,-0.12096 2.90322,0 5.7258,0.0806 7.37903,0.12096 v -0.88709 c -3.58871,-0.0403 -4.31452,-0.48387 -4.31452,-3.62904 v -7.01613 z m 0.3629,-16.20967 c 3.66936,0 5,2.54032 5,7.62096 0,4.11291 -1.00806,7.78226 -5.76612,7.78226 h -1.73388 v -11.93548 c 0,-2.78226 0.40323,-3.46774 2.5,-3.46774 z" /></g>

<g
   id="text48"
   style="font-style:normal;font-variant:normal;font-weight:bold;font-stretch:normal;font-size:40px;line-height:125%;font-family:'Playfair Display';-inkscape-font-specification:'Playfair Display, Bold';text-align:start;writing-mode:lr-tb;text-anchor:start;fill:#f37021;fill-opacity:1;fill-rule:nonzero;stroke:none;stroke-width:1.25"
   aria-label="'19"><path
     id="path56"
     style="font-style:normal;font-variant:normal;font-weight:bold;font-stretch:normal;font-size:50.00000381px;font-family:'Playfair Display';-inkscape-font-specification:'Playfair Display, Bold';font-variant-ligatures:normal;font-variant-caps:normal;font-variant-numeric:normal;font-feature-settings:normal;text-align:start;writing-mode:lr-tb;text-anchor:start"
     d="m 164.49579,182.54887 c -1.45161,0 -2.54032,1.04839 -2.54032,2.70162 0,2.45967 1.16935,4.03226 2.25806,7.8629 h 0.56452 c 1.08871,-4.03226 2.25806,-5.44355 2.25806,-7.90323 0,-1.65322 -1.12903,-2.66129 -2.54032,-2.66129 z" /><path
     id="path58"
     style="font-style:normal;font-variant:normal;font-weight:bold;font-stretch:normal;font-size:50.00000381px;font-family:'Playfair Display';-inkscape-font-specification:'Playfair Display, Bold';font-variant-ligatures:normal;font-variant-caps:normal;font-variant-numeric:normal;font-feature-settings:normal;text-align:start;writing-mode:lr-tb;text-anchor:start"
     d="m 180.03132,190.69404 c -2.33871,1.45161 -5.16129,1.9758 -9.75806,2.05645 v 0.88709 c 3.06452,0 3.95161,0.48388 3.95161,4.35484 v 9.83871 c 0,2.62097 -1.41129,3.30646 -3.79032,3.30646 v 0.84677 c 1.41129,-0.0403 4.15323,-0.16129 6.93548,-0.16129 2.17742,0 4.47581,0.12097 5.56452,0.16129 v -0.84677 c -2.09677,0 -2.90323,-0.68549 -2.90323,-3.06452 z" /><path
     id="path60"
     style="font-style:normal;font-variant:normal;font-weight:bold;font-stretch:normal;font-size:50.00000381px;font-family:'Playfair Display';-inkscape-font-specification:'Playfair Display, Bold';font-variant-ligatures:normal;font-variant-caps:normal;font-variant-numeric:normal;font-feature-settings:normal;text-align:start;writing-mode:lr-tb;text-anchor:start"
     d="m 195.29972,190.57307 c -5.40322,0 -10.04032,3.38709 -10.04032,9.55645 0,5.48387 3.62903,8.75 7.90323,8.75 1.93548,0 3.95161,-0.68548 5.16129,-2.45968 -1.25,7.70162 -5.56452,9.71775 -9.55646,10.8871 l 0.16129,0.80645 c 6.29033,-0.88709 15.84678,-5.56451 15.84678,-16.41129 0,-7.09677 -3.58871,-11.12903 -9.47581,-11.12903 z m -0.52419,17.1371 c -1.89516,0 -3.42742,-2.1371 -3.42742,-7.90323 0,-6.08871 1.69355,-8.42742 3.50806,-8.42742 1.81452,0 3.83065,2.33871 3.83065,10.12097 0,1.20968 -0.0403,2.29839 -0.16129,3.30645 -0.8871,2.1371 -2.58065,2.90323 -3.75,2.90323 z" /></g>

</svg>